<?xml version="1.0" standalone="no"?>
<!DOCTYPE svg PUBLIC "-//W3C//DTD SVG 20010904//EN"
 "http://www.w3.org/TR/2001/REC-SVG-20010904/DTD/svg10.dtd">
<svg version="1.0" xmlns="http://www.w3.org/2000/svg"
 width="1280.000000pt" height="1167.000000pt" viewBox="0 0 1280.000000 1167.000000"
 preserveAspectRatio="xMidYMid meet">
<metadata>
Created by potrace 1.15, written by Peter Selinger 2001-2017
</metadata>
<g transform="translate(0.000000,1167.000000) scale(0.100000,-0.100000)"
fill="#000000" stroke="none">
<path d="M11005 11529 c-562 -339 -972 -656 -1361 -1051 -307 -311 -529 -586
-779 -962 l-117 -176 -176 -119 c-1033 -694 -1769 -1492 -2262 -2454 -61 -119
-80 -146 -80 -114 0 20 -142 455 -211 646 l-59 164 64 206 c318 1008 753 2107
1265 3192 56 117 97 209 93 204 -13 -14 -308 -439 -444 -640 -492 -724 -855
-1385 -1165 -2125 -62 -147 -83 -189 -83 -162 0 15 -58 151 -300 697 -206 465
-340 778 -340 795 0 5 -4 11 -9 15 -6 3 3 -34 19 -82 89 -272 392 -1267 480
-1578 42 -146 42 -150 27 -195 -8 -25 -50 -144 -94 -265 -43 -121 -107 -309
-143 -417 -47 -146 -68 -198 -80 -198 -38 0 -77 48 -103 124 -5 17 -13 145
-16 283 -6 244 -7 253 -28 275 -16 15 -34 22 -59 21 -42 -1 -150 -52 -182 -86
l-22 -24 55 -147 c68 -182 97 -285 99 -353 1 -69 -16 -88 -72 -78 -36 6 -53
21 -155 133 -129 143 -406 417 -512 506 -38 33 -144 132 -235 221 -313 306
-1012 947 -1070 980 -8 4 66 -75 165 -176 149 -152 343 -363 474 -513 l26 -30
-30 19 c-253 159 -519 294 -810 411 l-130 52 -109 153 c-334 472 -555 750
-1231 1549 -165 195 -352 418 -414 495 -105 129 -163 196 -134 155 6 -8 68
-94 139 -190 353 -483 735 -1028 999 -1430 194 -294 388 -600 383 -605 -2 -2
-53 9 -113 26 -389 105 -774 168 -1250 204 -278 22 -321 18 -140 -11 595 -95
1137 -254 1615 -472 l65 -29 137 -239 c644 -1127 1119 -2222 1451 -3349 63
-211 137 -483 137 -499 0 -5 -35 23 -77 61 -362 325 -846 623 -1328 817 -77
32 -149 61 -161 66 -12 5 -61 77 -119 176 -246 422 -514 825 -774 1164 -88
115 -260 330 -264 330 -1 0 0 -47 1 -105 2 -58 1 -105 -2 -105 -4 0 -53 35
-109 79 -352 270 -779 498 -1206 642 -63 21 -116 37 -118 35 -2 -1 23 -20 54
-41 159 -105 527 -393 713 -555 144 -127 330 -302 330 -311 0 -4 -33 -27 -74
-50 l-75 -42 97 -90 c171 -159 363 -363 522 -556 53 -65 270 -354 267 -357 -1
-1 -23 0 -50 3 -42 5 -56 14 -140 91 -330 304 -324 300 -140 79 62 -75 113
-137 113 -139 0 -2 -44 3 -97 10 -152 23 -735 22 -873 -1 -134 -22 -310 -60
-310 -67 0 -3 39 -12 88 -19 390 -56 919 -183 1319 -316 289 -97 264 -79 436
-300 163 -208 175 -229 300 -515 387 -887 657 -1954 806 -3180 33 -270 73
-703 86 -925 3 -55 9 -115 12 -132 l5 -33 2329 0 2329 0 0 243 c0 293 22 658
60 1012 9 78 17 105 66 205 230 476 534 926 867 1285 394 425 824 749 1327
1000 l165 82 90 -8 c441 -42 838 -112 1304 -230 107 -27 196 -48 197 -46 2 2
-95 42 -214 90 -267 106 -606 220 -851 285 l-183 49 98 35 c462 165 1114 295
1629 324 66 4 126 10 133 13 12 7 -170 29 -463 57 -224 21 -821 30 -1027 15
-462 -34 -840 -118 -1223 -271 l-120 -48 -235 -5 c-309 -7 -552 -42 -813 -117
-60 -18 -111 -30 -113 -27 -3 2 15 53 38 113 l43 109 145 97 c353 237 755 434
1145 563 261 86 592 157 860 186 l120 13 -60 12 c-33 7 -134 23 -225 36 -145
20 -206 22 -500 22 -293 0 -355 -3 -495 -22 -193 -28 -368 -63 -530 -107 -66
-18 -122 -32 -123 -30 -2 2 35 80 83 174 96 188 246 419 576 886 187 263 364
519 383 553 4 7 -38 -10 -94 -38 -56 -28 -104 -50 -106 -48 -6 7 175 219 305
357 69 74 240 252 379 395 140 144 267 278 284 299 l31 39 -104 -52 -104 -53
109 114 c231 241 548 530 814 741 61 50 112 92 112 94 0 14 -546 -320 -812
-498 -82 -54 -148 -95 -148 -91 0 5 7 46 14 93 8 47 13 86 12 87 -3 3 -550
-590 -817 -884 -96 -105 -175 -190 -177 -189 -1 2 42 129 97 282 55 153 99
280 97 281 -4 4 -135 -185 -212 -307 -161 -252 -343 -566 -485 -836 -39 -73
-78 -142 -87 -152 -9 -11 -71 -38 -137 -62 -66 -24 -195 -74 -287 -111 -93
-37 -168 -66 -168 -65 0 21 232 679 328 931 298 781 724 1697 1135 2445 75
136 -7 7 -190 -300 -408 -682 -666 -1146 -912 -1639 -219 -437 -482 -1035
-632 -1436 -28 -77 -57 -145 -63 -151 -6 -7 -72 -45 -146 -84 -74 -40 -186
-104 -249 -141 -63 -38 -117 -67 -120 -64 -8 8 56 495 99 749 115 685 282
1309 501 1866 69 176 70 177 170 301 56 68 120 144 143 168 22 25 -10 -1 -71
-58 -62 -57 -113 -101 -113 -97 0 3 39 88 86 188 312 663 711 1266 1213 1833
322 363 773 784 1171 1095 103 80 127 100 119 100 -3 0 -95 -54 -204 -121z
m-2424 -2477 c-64 -109 -235 -447 -324 -642 l-93 -205 -150 -186 c-559 -696
-1064 -1553 -1415 -2399 l-43 -104 -24 90 c-12 49 -41 153 -62 231 l-39 141
33 99 c86 250 173 459 295 703 306 611 679 1127 1274 1760 118 125 570 570
575 565 2 -1 -10 -25 -27 -53z m-5510 -1015 c400 -250 670 -467 1030 -826 184
-184 454 -479 446 -488 -1 -1 -40 16 -85 38 -137 65 -207 76 -195 30 11 -41
105 -111 353 -264 69 -43 132 -83 140 -90 26 -20 119 -154 113 -161 -22 -22
-135 2 -433 92 -119 36 -172 47 -218 43 -8 -1 -12 -10 -10 -23 4 -31 43 -49
222 -102 251 -76 363 -141 409 -239 23 -48 26 -70 36 -278 l11 -225 -46 -195
c-54 -233 -173 -787 -204 -953 l-23 -119 -69 199 c-510 1479 -1014 2608 -1576
3533 -44 72 -77 131 -72 131 4 0 81 -46 171 -103z m4629 -1173 c-133 -462
-261 -1024 -360 -1580 l-40 -225 -57 -52 c-115 -103 -259 -240 -301 -285 -28
-30 -41 -40 -38 -27 3 11 21 85 41 165 138 554 325 1115 539 1612 81 190 247
540 253 535 1 -2 -15 -66 -37 -143z m-1856 4 c14 -54 26 -100 26 -103 0 -3
-25 -5 -55 -5 -30 0 -55 3 -55 6 0 10 54 203 56 201 1 -1 14 -46 28 -99z m36
-135 c0 -4 32 -138 70 -299 l70 -292 -31 -79 c-34 -85 -136 -366 -164 -451
l-17 -53 -60 108 c-33 59 -88 155 -123 213 l-64 105 33 138 c18 76 35 139 37
141 2 2 47 21 99 42 109 42 164 75 180 104 27 51 -17 49 -162 -6 -49 -19 -91
-34 -92 -34 -2 0 16 71 39 158 l41 157 64 27 c71 29 80 31 80 21z m3236 -995
c-119 -245 -267 -568 -398 -868 -59 -136 -66 -146 -103 -165 -22 -12 -85 -44
-140 -73 -54 -28 -101 -49 -104 -47 -5 6 103 446 169 685 89 324 68 281 178
362 129 96 505 357 514 358 3 0 -49 -114 -116 -252z m-3613 -668 c114 -266
108 -214 54 -472 -40 -190 -72 -362 -114 -603 -8 -47 -11 -34 -51 205 -23 140
-51 317 -62 392 l-21 137 46 253 c25 139 48 262 52 272 7 24 3 32 96 -184z
m2696 113 c-36 -103 -155 -493 -214 -698 l-57 -200 -56 -43 -57 -43 -4 38 c-4
44 17 564 25 636 6 46 8 49 152 175 138 120 224 192 229 192 1 0 -7 -26 -18
-57z m-1933 -443 l-23 -73 -26 56 c-52 114 -52 111 -28 253 35 209 31 208 67
13 l33 -176 -23 -73z m-3208 -272 c425 -284 791 -635 1077 -1033 124 -173 255
-390 255 -424 0 -14 -18 -141 -39 -281 -22 -140 -52 -346 -67 -457 -16 -112
-31 -203 -34 -202 -3 0 -80 152 -172 337 -225 454 -393 754 -621 1106 -49 77
-107 182 -129 235 -58 139 -231 517 -299 653 -33 65 -57 118 -54 118 3 0 41
-23 83 -52z m4098 -449 c-14 -118 -33 -281 -41 -364 -14 -132 -19 -153 -40
-174 -28 -28 -18 -57 -85 246 l-52 233 43 52 c109 133 192 228 196 225 2 -3
-8 -101 -21 -218z m2164 -277 c-228 -156 -582 -476 -801 -724 -38 -43 -69 -72
-69 -65 0 16 32 130 107 379 l56 187 94 41 c144 63 303 118 468 161 169 43
180 45 145 21z"/>
<path d="M9125 8938 c-55 -57 -123 -128 -150 -158 l-50 -55 63 60 c65 61 247
255 240 255 -2 0 -48 -46 -103 -102z"/>
</g>
</svg>
